# xmcd CD database file
#
# Track frame offsets:
#	150
#	15396
#	47782
#	80709
#	110074
#	144160
#
# Disc length: 2375 seconds
#
# Revision: 0
# Processed by: cddbd v1.5.1PL2 Copyright (c) Steve Scherf et al.
# Submitted via: CDex 1.51
#
DISCID=47094506
DTITLE=Trinity - Like The Sun
DYEAR=2005
DGENRE=Trance
TTITLE0=Like The Sun - Radio Edit
TTITLE1=Like The Sun - Original Mix
TTITLE2=Like The Sun - Paradise Remix
TTITLE3=Like The Sun - Dizzy Deejays Remix
TTITLE4=Like The Sun - Lost Witness vs Sassot Remix
TTITLE5=Like The Sun - Andre Pascal Remix
EXTD=YEAR: 2005
EXTT0=
EXTT1=
EXTT2=
EXTT3=
EXTT4=
EXTT5=
PLAYORDER=
